<svg id="레이어_1" data-name="레이어 1" xmlns="http://www.w3.org/2000/svg" viewBox="0 0 295.19 312.12"><defs><style>.cls-1{fill:#231815;}</style></defs><polygon class="cls-1" points="281.1 83.13 211 83.13 211 96.87 281.1 96.87 281.1 215.93 295.19 215.93 295.19 0 281.1 0 281.1 83.13"/><polygon class="cls-1" points="34.67 164 64.84 95.87 64.94 95.91 69.77 85.01 69.67 84.97 96.19 25.11 102.15 25.11 102.15 25.01 190.22 25.01 190.22 11.27 0 11.27 0 25.01 81.21 25.01 22.11 158.43 34.67 164"/><polygon class="cls-1" points="120.15 59.79 76.46 158.43 89.02 164 109.25 118.33 109.34 118.37 112.58 111.06 112.48 111.02 132.71 65.35 120.15 59.79"/><polygon class="cls-1" points="155.55 106.87 132.71 158.43 145.27 164 155.85 140.13 155.94 140.17 157.63 136.35 157.54 136.31 168.11 112.44 155.55 106.87"/><polygon class="cls-1" points="41.57 299.89 41.57 283.89 41.57 209.61 27.48 209.61 27.48 299.89 27.48 312.12 295.19 312.12 295.19 299.89 205.23 299.89 41.57 299.89"/></svg>