<svg id="레이어_1" data-name="레이어 1" xmlns="http://www.w3.org/2000/svg" viewBox="0 0 288.85 316.72"><defs><style>.cls-1{fill:#231815;}</style></defs><path class="cls-1" d="M188.67,22.19h1.42L128.2,158.58l12.56,5.57,41-89,.1,0,3.23-7.31-.09,0,20.23-45.67,0,0c0-1,0-2.08,0-3.13V8.1H0V22.19H188.67Z"/><rect class="cls-1" x="274.76" width="14.09" height="172.96"/><polygon class="cls-1" points="115.64 60.03 71.94 158.68 84.5 164.24 104.73 118.57 104.83 118.61 108.06 111.31 107.97 111.26 128.2 65.59 115.64 60.03"/><path class="cls-1" d="M25,206.35V316.72H288.85V206.35Zm249.75,98.14H39.1V218.57H274.76Z"/></svg>