<svg id="레이어_1" data-name="레이어 1" xmlns="http://www.w3.org/2000/svg" viewBox="0 0 1416.39 318.44"><defs><style>.cls-1{fill:#231815;}</style></defs><path class="cls-1" d="M1316.21,23.92h1.42l-61.9,136.39,12.56,5.56,41-89,.09,0,3.24-7.3-.1,0,20.23-45.67h0c0-1,0-2.08,0-3.13V9.83H1127.53V23.92h188.68Z"/><rect class="cls-1" x="1402.29" y="1.73" width="14.09" height="172.96"/><polygon class="cls-1" points="1243.17 61.76 1199.48 160.4 1212.04 165.97 1232.27 120.3 1232.36 120.34 1235.6 113.03 1235.5 112.99 1255.73 67.32 1243.17 61.76"/><path class="cls-1" d="M1152.55,208.07V318.44h263.84V208.07Zm249.75,98.14H1166.64V220.29H1402.3Z"/><path class="cls-1" d="M862.59,6.87c-50.37,0-90.17,32.76-90.17,80.67v143c0,48.26,39.8,81,90.17,81s90.18-32.76,90.18-81v-143C952.77,39.63,913,6.87,862.59,6.87Zm76.09,224.39c0,39.1-33.82,66.57-76.09,66.57-41.92,0-76.08-27.47-76.08-66.57V87.18c0-38.74,34.16-66.57,76.08-66.57,42.27,0,76.09,27.83,76.09,66.57Z"/><rect class="cls-1" x="1040.8" width="14.09" height="318.44"/><polygon class="cls-1" points="281.1 89.45 211 89.45 211 103.19 281.1 103.19 281.1 222.25 295.19 222.25 295.19 6.32 281.1 6.32 281.1 89.45"/><polygon class="cls-1" points="34.67 170.32 64.84 102.19 64.94 102.23 69.77 91.33 69.67 91.29 96.19 31.43 102.15 31.43 102.15 31.33 190.22 31.33 190.22 17.59 0 17.59 0 31.33 81.21 31.33 22.11 164.75 34.67 170.32"/><polygon class="cls-1" points="120.15 66.11 76.46 164.75 89.02 170.32 109.25 124.65 109.34 124.69 112.58 117.38 112.48 117.34 132.71 71.67 120.15 66.11"/><polygon class="cls-1" points="155.55 113.19 132.71 164.75 145.27 170.32 155.85 146.44 155.94 146.49 157.63 142.67 157.54 142.63 168.11 118.76 155.55 113.19"/><polygon class="cls-1" points="41.57 306.21 41.57 290.21 41.57 215.93 27.48 215.93 27.48 306.21 27.48 318.44 295.19 318.44 295.19 306.21 205.23 306.21 41.57 306.21"/><polygon class="cls-1" points="629.67 126.94 629.67 54.41 629.67 6.32 615.58 6.32 615.58 54.41 615.58 270.35 615.58 318.44 629.67 318.44 629.67 270.35 629.67 190.6 629.67 154.09 629.67 151.28 699.77 151.28 699.77 137.55 629.67 137.55 629.67 126.94"/><polygon class="cls-1" points="381.93 291.49 381.93 247.11 381.93 6.32 367.84 6.32 367.84 247.11 367.84 293.05 367.84 306.21 367.83 306.21 367.83 318.44 560.52 318.44 560.52 306.21 381.93 306.21 381.93 291.49"/></svg>